<?xml version="1.0" encoding="utf-8"?>
<!-- Generator: Adobe Illustrator 16.0.0, SVG Export Plug-In . SVG Version: 6.00 Build 0)  -->
<!DOCTYPE svg PUBLIC "-//W3C//DTD SVG 1.1//EN" "http://www.w3.org/Graphics/SVG/1.1/DTD/svg11.dtd">
<svg version="1.1" xmlns="http://www.w3.org/2000/svg" xmlns:xlink="http://www.w3.org/1999/xlink" x="0px" y="0px" width="600px"
	 height="120px" viewBox="0 0 600 120" enable-background="new 0 0 600 120" xml:space="preserve">
<g id="elements">
	<g>
		<rect fill="none" width="100" height="60"/>
		<rect x="100" fill="none" width="100" height="60"/>
		<rect x="200" fill="none" width="100" height="60"/>
		<rect x="300" fill="none" width="100" height="60"/>
		<rect x="400" fill="none" width="100" height="60"/>
		<rect x="500" fill="none" width="100" height="60"/>
		<g>
			<path fill="#746859" d="M466.027,73.019h-15.49v-3.254c0-0.297-0.24-0.537-0.537-0.537c-0.298,0-0.537,0.24-0.537,0.537v3.254
				h-15.49c-2.205,0-3.998,1.794-3.998,3.998V95.93c0,2.205,1.793,3.998,3.998,3.998h8.76l-5.93,10.033
				c-0.151,0.256-0.066,0.585,0.189,0.736c0.085,0.051,0.18,0.075,0.272,0.075c0.184,0,0.363-0.096,0.463-0.265l6.253-10.58h5.482
				v9.024c0,0.296,0.239,0.537,0.537,0.537c0.297,0,0.537-0.241,0.537-0.537v-9.024h5.605l6.129,10.37
				c0.151,0.256,0.48,0.341,0.736,0.189c0.256-0.15,0.341-0.48,0.189-0.736l-5.807-9.823h8.637c2.204,0,3.998-1.793,3.998-3.998
				V77.017C470.025,74.812,468.231,73.019,466.027,73.019z M468.95,95.93c0,1.612-1.312,2.924-2.923,2.924h-9.441
				c-0.048-0.014-0.098-0.022-0.15-0.022h-12.748c-0.052,0-0.102,0.009-0.15,0.022h-9.564c-1.611,0-2.924-1.312-2.924-2.924V77.017
				c0-1.611,1.312-2.923,2.924-2.923h32.055c1.611,0,2.923,1.312,2.923,2.923V95.93z"/>
			<path fill="#746859" d="M461.68,80.049l-11.684,11.717l-5.756-5.562c-0.192-0.186-0.487-0.203-0.699-0.042l-5.926,4.503
				c-0.236,0.18-0.283,0.518-0.104,0.753c0.18,0.236,0.516,0.283,0.754,0.103l5.559-4.224l5.805,5.609
				c0.104,0.101,0.239,0.151,0.374,0.151c0.138,0,0.275-0.054,0.38-0.158l12.057-12.091c0.211-0.212,0.21-0.551,0-0.761
				C462.229,79.838,461.889,79.839,461.68,80.049z"/>
		</g>
		<g>
			<path fill="#746859" d="M365.266,91.627h-16.9V74.725c0-0.297-0.24-0.537-0.537-0.537c-9.912,0-17.977,8.064-17.977,17.977
				s8.064,17.975,17.977,17.975s17.977-8.062,17.977-17.975C365.805,91.867,365.564,91.627,365.266,91.627z M360.145,103.721
				l-11.02-11.02h15.59C364.582,96.955,362.869,100.816,360.145,103.721z M330.928,92.164c0-9.139,7.293-16.604,16.363-16.889
				v16.889c0,0.07,0.014,0.139,0.041,0.205s0.066,0.125,0.115,0.176l11.938,11.936c-3.025,2.84-7.09,4.584-11.557,4.584
				C338.51,109.064,330.928,101.482,330.928,92.164z"/>
			<path fill="#746859" d="M352.172,69.861c-0.297,0-0.537,0.24-0.537,0.537v17.438c0,0.297,0.24,0.537,0.537,0.537h17.439
				c0.295,0,0.537-0.24,0.537-0.537C370.148,77.924,362.084,69.861,352.172,69.861z M369.061,87.299h-16.352v-16.35
				C361.602,71.229,368.779,78.406,369.061,87.299z"/>
		</g>
		<g>
			<path fill="#746859" d="M65.537,81.064c0.134,0,0.266-0.049,0.369-0.148l4.714-4.455c0.217-0.203,0.227-0.543,0.022-0.758
				c-0.204-0.217-0.546-0.227-0.761-0.021l-4.714,4.453c-0.215,0.205-0.225,0.545-0.021,0.76
				C65.253,81.006,65.396,81.064,65.537,81.064z"/>
			<path fill="#746859" d="M65.906,91.613c-0.215-0.203-0.556-0.195-0.759,0.021c-0.204,0.217-0.194,0.557,0.021,0.76l4.714,4.455
				c0.104,0.098,0.237,0.146,0.369,0.146c0.144,0,0.285-0.057,0.392-0.168c0.204-0.215,0.194-0.557-0.022-0.76L65.906,91.613z"/>
			<path fill="#746859" d="M73.035,85.658h-6.771c-0.297,0-0.537,0.24-0.537,0.537s0.24,0.539,0.537,0.539h6.771
				c0.298,0,0.537-0.242,0.537-0.539S73.333,85.658,73.035,85.658z"/>
			<path fill="#746859" d="M59.089,79.174v-5.785c0-1.041-0.846-1.887-1.886-1.887h-0.636c-0.976,0-1.771,0.748-1.867,1.699
				c-4.119,0.916-7.391,1.701-10.028,2.334c-6.839,1.645-9.96,2.393-15.114,2.43c-1.726,0.012-3.13,1.418-3.13,3.135v10.137
				c0,1.719,1.404,3.125,3.13,3.137c0.246,0.002,0.478,0.01,0.714,0.016l1.971,12.051c0.033,0.217,0.196,0.391,0.411,0.439
				l7.045,1.605c0.039,0.01,0.08,0.014,0.119,0.014c0.137,0,0.269-0.051,0.369-0.146c0.131-0.123,0.191-0.303,0.162-0.479
				l-2.115-12.549c1.844,0.379,3.896,0.869,6.461,1.484c2.658,0.639,5.959,1.43,10.124,2.354c0.278,0.695,0.955,1.189,1.749,1.189
				h0.636c1.04,0,1.886-0.846,1.886-1.885v-6.721c2.66-0.932,4.487-3.459,4.487-6.285C63.576,82.633,61.749,80.107,59.089,79.174z
				 M27.503,91.236V81.1c0-1.146,0.906-2.053,2.062-2.061c3.601-0.025,6.313-0.41,9.803-1.164v16.59
				c-0.573-0.123-1.125-0.236-1.661-0.34c-0.004-0.002-0.006-0.002-0.01-0.002c-0.479-0.094-0.951-0.18-1.414-0.256
				c-1.886-0.314-3.645-0.486-5.533-0.545h-0.001l0,0c-0.386-0.012-0.775-0.021-1.184-0.023
				C28.409,93.291,27.503,92.385,27.503,91.236z M39.158,107.258l-5.912-1.346l-1.88-11.484c1.596,0.074,3.123,0.23,4.74,0.498
				c0.329,0.057,0.662,0.115,1.001,0.178L39.158,107.258z M40.441,94.703V77.639c1.341-0.303,2.808-0.656,4.481-1.059
				c2.579-0.619,5.769-1.385,9.759-2.273v5.258v11.793v6.672c-3.98-0.885-7.162-1.646-9.737-2.266
				C43.25,95.357,41.782,95.006,40.441,94.703z M58.015,98.467c0,0.447-0.364,0.811-0.812,0.811h-0.636
				c-0.447,0-0.812-0.363-0.812-0.811v-7.109V79.564v-5.928v-0.248c0-0.447,0.364-0.811,0.812-0.811h0.636
				c0.447,0,0.812,0.363,0.812,0.811v6.176v11.793V98.467z M59.089,90.594V80.328c2.039,0.873,3.413,2.891,3.413,5.133
				S61.128,89.719,59.089,90.594z"/>
		</g>
		<path fill="#746859" d="M570.647,78.426h-13.821v-5.498c0-0.297-0.24-0.537-0.537-0.537h-12.578c-0.297,0-0.538,0.24-0.538,0.537
			v5.498h-13.82c-0.297,0-0.537,0.238-0.537,0.537v3.09v25.02c0,0.299,0.24,0.537,0.537,0.537h41.295
			c0.297,0,0.537-0.238,0.537-0.537v-25.02v-3.09C571.185,78.664,570.944,78.426,570.647,78.426z M544.248,75.705h11.504v2.721
			h-11.504V75.705z M555.752,73.465v1.166h-11.504v-1.166H555.752z M529.89,79.5h13.821h12.578h13.821v2.553
			c0,6.139-4.994,11.131-11.133,11.131h-5.602v-1.412c0-0.299-0.241-0.537-0.537-0.537h-5.677c-0.297,0-0.538,0.238-0.538,0.537
			v1.412h-5.602c-6.139,0-11.133-4.992-11.133-11.131V79.5z M547.7,93.721v-1.412h4.6v1.412v1.781h-4.6V93.721z M570.11,106.535
			H529.89v-19.5c1.912,4.252,6.178,7.223,11.133,7.223h5.602v1.781c0,0.299,0.241,0.537,0.538,0.537h5.677
			c0.296,0,0.537-0.238,0.537-0.537v-1.781h5.602c4.955,0,9.223-2.971,11.133-7.223V106.535z"/>
		<g>
			<path fill="#746859" d="M268.698,98.055c0.002-0.008,0.002-0.016,0.005-0.023c0.001-0.004,0.003-0.008,0.006-0.014
				c0.001-0.004,0.005-0.012,0.007-0.018c0.016-0.047,0.024-0.1,0.024-0.152v-0.002l0,0l0,0l-0.065-22.996
				c0-0.027-0.012-0.049-0.016-0.074c-0.005-0.037-0.008-0.072-0.021-0.107c-0.004-0.008-0.003-0.018-0.007-0.027
				c-0.011-0.027-0.031-0.047-0.048-0.07c-0.014-0.021-0.019-0.047-0.036-0.066c-0.004-0.006-0.012-0.008-0.018-0.014
				s-0.008-0.014-0.013-0.02c-0.022-0.021-0.051-0.033-0.075-0.051c-0.027-0.02-0.051-0.041-0.08-0.055
				c-0.007-0.002-0.01-0.006-0.017-0.01c-0.022-0.01-0.05-0.008-0.074-0.016c-0.038-0.01-0.073-0.021-0.112-0.021
				c-0.007,0-0.015-0.006-0.021-0.006h-0.002h-36.338h-0.001c-0.009,0.002-0.015,0.006-0.023,0.006
				c-0.036,0.002-0.07,0.012-0.105,0.021c-0.026,0.006-0.056,0.006-0.08,0.016c-0.006,0.004-0.011,0.01-0.018,0.012
				c-0.026,0.012-0.05,0.035-0.076,0.053c-0.004,0.002-0.008,0.004-0.011,0.006c-0.021,0.018-0.047,0.027-0.066,0.045
				c-0.006,0.006-0.008,0.014-0.014,0.02c-0.004,0.006-0.012,0.008-0.017,0.014c-0.018,0.02-0.022,0.045-0.036,0.066
				c-0.002,0.004-0.004,0.006-0.006,0.008c-0.014,0.021-0.032,0.039-0.042,0.064c-0.004,0.008-0.003,0.018-0.007,0.025
				c-0.012,0.037-0.016,0.072-0.021,0.109c-0.003,0.025-0.015,0.049-0.015,0.074h0.001h-0.001l0.065,22.994
				c0,0.025,0.011,0.049,0.015,0.074c0.005,0.035,0.009,0.072,0.022,0.107c0.002,0.01,0.002,0.02,0.006,0.027
				c0.001,0.004,0.005,0.006,0.006,0.01c0.01,0.023,0.028,0.041,0.042,0.062c0.013,0.02,0.019,0.045,0.035,0.064
				c0.005,0.006,0.012,0.008,0.017,0.014c0.039,0.041,0.086,0.074,0.135,0.102c0.016,0.008,0.027,0.021,0.043,0.029
				c0.004,0,0.006,0.004,0.008,0.004c0.064,0.027,0.135,0.043,0.209,0.043h0.001h0.064h36.274c0.16,0.016,0.303-0.064,0.402-0.186
				c0.002-0.002,0.007-0.002,0.01-0.006c0.005-0.008,0.006-0.016,0.012-0.021c0.019-0.025,0.036-0.053,0.051-0.08
				C268.683,98.076,268.692,98.066,268.698,98.055z M255.377,86.32l12.227-10.316l0.058,20.682L255.377,86.32z M254.196,85.91
				L254.196,85.91l-4.229,3.566l-4.164-3.512l0,0l-12.535-10.576h33.397L254.196,85.91z M232.339,76.012l12.285,10.363
				l-12.227,10.316L232.339,76.012z M245.457,87.08l4.163,3.51c0.101,0.086,0.224,0.127,0.348,0.127
				c0.123,0,0.246-0.041,0.346-0.127l4.229-3.566l12.189,10.285h-33.398L245.457,87.08z"/>
			<path fill="#746859" d="M264.117,104.613h-28.235c-0.296,0-0.537,0.238-0.537,0.537c0,0.297,0.241,0.537,0.537,0.537h28.235
				c0.298,0,0.538-0.24,0.538-0.537C264.655,104.852,264.415,104.613,264.117,104.613z"/>
		</g>
		<g>
			<path fill="#746859" d="M172.062,103.124l-3.421-5.038c1.038-1.212,1.585-2.601,1.585-4.04c0-2.632-1.81-5.021-4.86-6.45
				c0.006-0.081,0.01-0.163,0.01-0.246c0-6.791-7.764-12.315-17.307-12.315s-17.306,5.524-17.306,12.315
				c0,1.889,0.592,3.707,1.762,5.406l-4.64,11.47c-0.084,0.208-0.031,0.445,0.134,0.597c0.102,0.094,0.232,0.144,0.364,0.144
				c0.082,0,0.165-0.02,0.24-0.057l12.533-6.274c3.304,1.024,6.862,1.312,10.555,0.747c2.022,1.513,4.835,2.376,7.761,2.376
				c1.355,0,2.676-0.178,3.928-0.529l8.046,2.707c0.218,0.072,0.46-0.001,0.599-0.185
				C172.184,103.567,172.191,103.314,172.062,103.124z M151.768,98.284c-3.682,0.598-7.224,0.31-10.493-0.74
				c-0.134-0.042-0.279-0.031-0.404,0.031l-11.455,5.735l4.216-10.424c0.069-0.172,0.045-0.367-0.063-0.518
				c-1.148-1.582-1.73-3.271-1.73-5.02c0-6.197,7.281-11.24,16.231-11.24s16.232,5.043,16.232,11.24c0,0.11-0.011,0.22-0.022,0.328
				l-0.017,0.196c-0.001,0.006-0.001,0.013-0.002,0.019c0,0,0,0,0,0.001l0,0v0.002C163.912,92.875,158.775,97.146,151.768,98.284
				L151.768,98.284z M163.584,100.156c-0.056-0.019-0.113-0.028-0.171-0.028c-0.052,0-0.104,0.008-0.152,0.022
				c-1.201,0.354-2.477,0.532-3.789,0.532c-2.294,0-4.503-0.568-6.244-1.584c6.498-1.442,11.251-5.532,12.018-10.363
				c2.459,1.256,3.904,3.203,3.904,5.311c0,1.288-0.546,2.54-1.579,3.621c-0.175,0.183-0.198,0.464-0.056,0.673l2.761,4.068
				L163.584,100.156z"/>
			<path fill="#746859" d="M142.255,86.093c-0.494,0-0.897,0.402-0.897,0.897s0.403,0.897,0.897,0.897s0.897-0.402,0.897-0.897
				S142.749,86.093,142.255,86.093z M142.255,87.168c-0.098,0-0.178-0.08-0.178-0.178s0.08-0.178,0.178-0.178
				s0.178,0.08,0.178,0.178S142.353,87.168,142.255,87.168z"/>
			<path fill="#746859" d="M148.372,86.093c-0.494,0-0.896,0.402-0.896,0.897s0.402,0.897,0.896,0.897
				c0.496,0,0.898-0.402,0.898-0.897S148.868,86.093,148.372,86.093z M148.372,87.168c-0.098,0-0.178-0.08-0.178-0.178
				s0.08-0.178,0.178-0.178c0.099,0,0.178,0.08,0.178,0.178S148.471,87.168,148.372,87.168z"/>
			<path fill="#746859" d="M154.507,86.093c-0.495,0-0.898,0.402-0.898,0.897s0.403,0.897,0.898,0.897
				c0.494,0,0.897-0.402,0.897-0.897S155.001,86.093,154.507,86.093z M154.507,87.168c-0.098,0-0.178-0.08-0.178-0.178
				s0.08-0.178,0.178-0.178s0.178,0.08,0.178,0.178S154.604,87.168,154.507,87.168z"/>
		</g>
		<rect y="60" fill="none" width="100" height="60"/>
		<rect x="100" y="60" fill="none" width="100" height="60"/>
		<rect x="200" y="60" fill="none" width="100" height="60"/>
		<rect x="300" y="60" fill="none" width="100" height="60"/>
		<rect x="400" y="60" fill="none" width="100" height="60"/>
		<rect x="500" y="60" fill="none" width="100" height="60"/>
		<g>
			<path fill="#746859" d="M466.027,13.019h-15.49V9.765c0-0.297-0.24-0.537-0.537-0.537c-0.298,0-0.537,0.24-0.537,0.537v3.254
				h-15.49c-2.205,0-3.998,1.794-3.998,3.998V35.93c0,2.205,1.793,3.998,3.998,3.998h8.76l-5.93,10.033
				c-0.151,0.256-0.066,0.585,0.189,0.736c0.085,0.051,0.18,0.075,0.272,0.075c0.184,0,0.363-0.096,0.463-0.265l6.253-10.58h5.482
				v9.024c0,0.296,0.239,0.537,0.537,0.537c0.297,0,0.537-0.241,0.537-0.537v-9.024h5.605l6.129,10.37
				c0.151,0.256,0.48,0.341,0.736,0.189c0.256-0.15,0.341-0.48,0.189-0.736l-5.807-9.823h8.637c2.204,0,3.998-1.793,3.998-3.998
				V17.017C470.025,14.812,468.231,13.019,466.027,13.019z"/>
		</g>
		<g>
			<path fill="#746859" d="M365.266,31.627h-16.9V14.725c0-0.297-0.24-0.537-0.537-0.537c-9.912,0-17.977,8.064-17.977,17.977
				s8.064,17.975,17.977,17.975s17.977-8.062,17.977-17.975C365.805,31.867,365.564,31.627,365.266,31.627z M360.145,43.721
				l-11.02-11.02h15.59C364.582,36.955,362.869,40.816,360.145,43.721z"/>
			<path fill="#746859" d="M352.172,9.861c-0.297,0-0.537,0.24-0.537,0.537v17.438c0,0.297,0.24,0.537,0.537,0.537h17.439
				c0.295,0,0.537-0.24,0.537-0.537C370.148,17.924,362.084,9.861,352.172,9.861z"/>
		</g>
		<g>
			<path fill="#746859" d="M65.537,21.064c0.134,0,0.266-0.049,0.369-0.148l4.714-4.455c0.217-0.203,0.227-0.543,0.022-0.758
				c-0.204-0.217-0.546-0.227-0.761-0.021l-4.714,4.453c-0.215,0.205-0.225,0.545-0.021,0.76
				C65.253,21.006,65.396,21.064,65.537,21.064z"/>
			<path fill="#746859" d="M65.906,31.613c-0.215-0.203-0.556-0.195-0.759,0.021c-0.204,0.217-0.194,0.557,0.021,0.76l4.714,4.455
				c0.104,0.098,0.237,0.146,0.369,0.146c0.144,0,0.285-0.057,0.392-0.168c0.204-0.215,0.194-0.557-0.022-0.76L65.906,31.613z"/>
			<path fill="#746859" d="M73.035,25.658h-6.771c-0.297,0-0.537,0.24-0.537,0.537s0.24,0.539,0.537,0.539h6.771
				c0.298,0,0.537-0.242,0.537-0.539S73.333,25.658,73.035,25.658z"/>
			<path fill="#746859" d="M59.089,19.174v-5.785c0-1.041-0.846-1.887-1.886-1.887h-0.636c-0.976,0-1.771,0.748-1.867,1.699
				c-4.119,0.916-7.391,1.701-10.028,2.334c-6.839,1.645-9.96,2.393-15.114,2.43c-1.726,0.012-3.13,1.418-3.13,3.135v10.137
				c0,1.719,1.404,3.125,3.13,3.137c0.246,0.002,0.478,0.01,0.714,0.016l1.971,12.051c0.033,0.217,0.196,0.391,0.411,0.439
				l7.045,1.605c0.039,0.01,0.08,0.014,0.119,0.014c0.137,0,0.269-0.051,0.369-0.146c0.131-0.123,0.191-0.303,0.162-0.479
				l-2.115-12.549c1.844,0.379,3.896,0.869,6.461,1.484c2.658,0.639,5.959,1.43,10.124,2.354c0.278,0.695,0.955,1.189,1.749,1.189
				h0.636c1.04,0,1.886-0.846,1.886-1.885v-6.721c2.66-0.932,4.487-3.459,4.487-6.285C63.576,22.633,61.749,20.107,59.089,19.174z
				 M58.015,38.467c0,0.447-0.364,0.811-0.812,0.811h-0.636c-0.447,0-0.812-0.363-0.812-0.811v-7.109V19.564v-5.928v-0.248
				c0-0.447,0.364-0.811,0.812-0.811h0.636c0.447,0,0.812,0.363,0.812,0.811v6.176v11.793V38.467z"/>
		</g>
		<path fill="#746859" d="M570.647,18.426h-13.821v-5.498c0-0.297-0.24-0.537-0.537-0.537h-12.578c-0.297,0-0.538,0.24-0.538,0.537
			v5.498h-13.82c-0.297,0-0.537,0.238-0.537,0.537v3.09v25.02c0,0.299,0.24,0.537,0.537,0.537h41.295
			c0.297,0,0.537-0.238,0.537-0.537v-25.02v-3.09C571.185,18.664,570.944,18.426,570.647,18.426z M544.248,15.705h11.504v2.721
			h-11.504V15.705z M570.11,46.535H529.89v-19.5c1.912,4.252,6.178,7.223,11.133,7.223h5.602v1.781c0,0.299,0.241,0.537,0.538,0.537
			h5.677c0.296,0,0.537-0.238,0.537-0.537v-1.781h5.602c4.955,0,9.223-2.971,11.133-7.223V46.535z"/>
		<g>
			<path fill="#746859" d="M268.698,38.055c0.002-0.008,0.002-0.016,0.005-0.023c0.001-0.004,0.003-0.008,0.006-0.014
				c0.001-0.004,0.005-0.012,0.007-0.018c0.016-0.047,0.024-0.1,0.024-0.152v-0.002l0,0l0,0l-0.065-22.996
				c0-0.027-0.012-0.049-0.016-0.074c-0.005-0.037-0.008-0.072-0.021-0.107c-0.004-0.008-0.003-0.018-0.007-0.027
				c-0.011-0.027-0.031-0.047-0.048-0.07c-0.014-0.021-0.019-0.047-0.036-0.066c-0.004-0.006-0.012-0.008-0.018-0.014
				s-0.008-0.014-0.013-0.02c-0.022-0.021-0.051-0.033-0.075-0.051c-0.027-0.02-0.051-0.041-0.08-0.055
				c-0.007-0.002-0.01-0.006-0.017-0.01c-0.022-0.01-0.05-0.008-0.074-0.016c-0.038-0.01-0.073-0.021-0.112-0.021
				c-0.007,0-0.015-0.006-0.021-0.006h-0.002h-36.338h-0.001c-0.009,0.002-0.015,0.006-0.023,0.006
				c-0.036,0.002-0.07,0.012-0.105,0.021c-0.026,0.006-0.056,0.006-0.08,0.016c-0.006,0.004-0.011,0.01-0.018,0.012
				c-0.026,0.012-0.05,0.035-0.076,0.053c-0.004,0.002-0.008,0.004-0.011,0.006c-0.021,0.018-0.047,0.027-0.066,0.045
				c-0.006,0.006-0.008,0.014-0.014,0.02c-0.004,0.006-0.012,0.008-0.017,0.014c-0.018,0.02-0.022,0.045-0.036,0.066
				c-0.002,0.004-0.004,0.006-0.006,0.008c-0.014,0.021-0.032,0.039-0.042,0.064c-0.004,0.008-0.003,0.018-0.007,0.025
				c-0.012,0.037-0.016,0.072-0.021,0.109c-0.003,0.025-0.015,0.049-0.015,0.074h0.001h-0.001l0.065,22.994
				c0,0.025,0.011,0.049,0.015,0.074c0.005,0.035,0.009,0.072,0.022,0.107c0.002,0.01,0.002,0.02,0.006,0.027
				c0.001,0.004,0.005,0.006,0.006,0.01c0.01,0.023,0.028,0.041,0.042,0.062c0.013,0.02,0.019,0.045,0.035,0.064
				c0.005,0.006,0.012,0.008,0.017,0.014c0.039,0.041,0.086,0.074,0.135,0.102c0.016,0.008,0.027,0.021,0.043,0.029
				c0.004,0,0.006,0.004,0.008,0.004c0.064,0.027,0.135,0.043,0.209,0.043h0.001h0.064h36.274c0.16,0.016,0.303-0.064,0.402-0.186
				c0.002-0.002,0.007-0.002,0.01-0.006c0.005-0.008,0.006-0.016,0.012-0.021c0.019-0.025,0.036-0.053,0.051-0.08
				C268.683,38.076,268.692,38.066,268.698,38.055z M254.196,25.91L254.196,25.91l-4.229,3.566l-4.164-3.512l0,0l-12.535-10.576
				h33.397L254.196,25.91z"/>
			<path fill="#746859" d="M264.117,44.613h-28.235c-0.296,0-0.537,0.238-0.537,0.537c0,0.297,0.241,0.537,0.537,0.537h28.235
				c0.298,0,0.538-0.24,0.538-0.537C264.655,44.852,264.415,44.613,264.117,44.613z"/>
		</g>
		<g>
			<path fill="#746859" d="M172.062,43.124l-3.421-5.038c1.038-1.212,1.585-2.601,1.585-4.04c0-2.632-1.81-5.021-4.86-6.45
				c0.006-0.081,0.01-0.163,0.01-0.246c0-6.791-7.764-12.315-17.307-12.315s-17.306,5.524-17.306,12.315
				c0,1.889,0.592,3.707,1.762,5.406l-4.64,11.47c-0.084,0.208-0.031,0.445,0.134,0.597c0.102,0.094,0.232,0.144,0.364,0.144
				c0.082,0,0.165-0.02,0.24-0.057l12.533-6.274c3.304,1.024,6.862,1.312,10.555,0.747c2.022,1.513,4.835,2.376,7.761,2.376
				c1.355,0,2.676-0.178,3.928-0.529l8.046,2.707c0.218,0.072,0.46-0.001,0.599-0.185C172.184,43.567,172.191,43.314,172.062,43.124
				z M163.584,40.156c-0.056-0.019-0.113-0.028-0.171-0.028c-0.052,0-0.104,0.008-0.152,0.022c-1.201,0.354-2.477,0.532-3.789,0.532
				c-2.294,0-4.503-0.568-6.244-1.584c6.498-1.442,11.251-5.532,12.018-10.363c2.459,1.256,3.904,3.203,3.904,5.311
				c0,1.288-0.546,2.54-1.579,3.621c-0.175,0.183-0.198,0.464-0.056,0.673l2.761,4.068L163.584,40.156z"/>
		</g>
		<path fill="#FFFFFF" d="M461.68,20.049l-11.684,11.717l-5.756-5.562c-0.192-0.186-0.487-0.203-0.699-0.042l-5.926,4.503
			c-0.236,0.18-0.283,0.518-0.104,0.753c0.18,0.236,0.516,0.283,0.754,0.103l5.559-4.224l5.805,5.609
			c0.104,0.101,0.239,0.151,0.374,0.151c0.138,0,0.275-0.054,0.38-0.158l12.057-12.091c0.211-0.212,0.21-0.551,0-0.761
			C462.229,19.838,461.889,19.839,461.68,20.049z"/>
		<path fill="#FFFFFF" d="M142.255,26.093c-0.494,0-0.897,0.402-0.897,0.897s0.403,0.897,0.897,0.897s0.897-0.402,0.897-0.897
			S142.749,26.093,142.255,26.093z"/>
		<path fill="#FFFFFF" d="M148.372,26.093c-0.494,0-0.896,0.402-0.896,0.897s0.402,0.897,0.896,0.897
			c0.496,0,0.898-0.402,0.898-0.897S148.868,26.093,148.372,26.093z"/>
		<path fill="#FFFFFF" d="M154.507,26.093c-0.495,0-0.898,0.402-0.898,0.897s0.403,0.897,0.898,0.897
			c0.494,0,0.897-0.402,0.897-0.897S155.001,26.093,154.507,26.093z"/>
	</g>
</g>
<g id="hide_elemnts" display="none">
</g>
<g id="guidedline">
</g>
</svg>
