<?xml version="1.0" encoding="utf-8"?>
<!-- Generator: Adobe Illustrator 16.0.0, SVG Export Plug-In . SVG Version: 6.00 Build 0)  -->
<!DOCTYPE svg PUBLIC "-//W3C//DTD SVG 1.1//EN" "http://www.w3.org/Graphics/SVG/1.1/DTD/svg11.dtd">
<svg version="1.1" xmlns="http://www.w3.org/2000/svg" xmlns:xlink="http://www.w3.org/1999/xlink" x="0px" y="0px" width="292px"
	 height="59px" viewBox="0 0 292 59" enable-background="new 0 0 292 59" xml:space="preserve">
<g id="elements">
	<g>
		<path fill="#FFFFFF" d="M286.546,5.501v47.997H5.454v-7.511C13.142,43.993,18.47,37.567,18.47,29.5S13.142,15.006,5.454,13.018
			V5.501H286.546 M291.687,0.362H0.313v17.156c7.19,0,13.016,4.797,13.016,11.982c0,7.19-5.825,11.988-13.016,11.988v17.15h291.373
			V0.362z"/>
		<polygon fill="#FFFFFF" points="38.165,41.1 30.356,18.068 35.746,18.068 40.485,33.556 45.614,18.001 49.928,18.001 
			55.057,33.556 59.792,18.068 65.056,18.068 57.248,41.1 52.869,41.1 47.703,26.135 42.544,41.1 		"/>
		<polygon fill="#FFFFFF" points="68.573,40.938 68.573,18.068 73.604,18.068 73.604,27.118 82.884,27.118 82.884,18.068 
			87.914,18.068 87.914,40.938 82.884,40.938 82.884,31.758 73.604,31.758 73.604,40.938 		"/>
		<rect x="93.815" y="18.068" fill="#FFFFFF" width="5.03" height="22.869"/>
		<polygon fill="#FFFFFF" points="109.505,40.938 109.505,22.708 102.548,22.708 102.548,18.068 121.496,18.068 121.496,22.708 
			114.539,22.708 114.539,40.938 		"/>
		<polygon fill="#FFFFFF" points="125.08,40.938 125.08,18.068 142.332,18.068 142.332,22.54 130.08,22.54 130.08,27.18 
			140.863,27.18 140.863,31.657 130.08,31.657 130.08,36.46 142.498,36.46 142.498,40.938 		"/>
		<polygon fill="#FFFFFF" points="161.114,40.938 161.114,18.068 166.147,18.068 166.147,36.365 177.548,36.365 177.548,40.938 		
			"/>
		<path fill="#FFFFFF" d="M180.126,40.938l9.801-23.038h4.639l9.803,23.038h-5.26l-2.09-5.129h-9.674l-2.09,5.129H180.126z
			 M189.142,31.365h6.076l-3.037-7.42L189.142,31.365z"/>
		<path fill="#FFFFFF" d="M207.804,40.938V18.068h10.621c2.635,0,4.629,0.674,5.979,2.022c1.045,1.045,1.568,2.365,1.568,3.955
			c0,2.157-1.004,3.803-3.006,4.932c1.416,0.545,2.482,1.258,3.203,2.14c0.719,0.882,1.078,2.067,1.078,3.545
			c0,2.05-0.764,3.606-2.289,4.674c-1.523,1.067-3.615,1.601-6.273,1.601H207.804z M212.706,27.315h4.639
			c2.42,0,3.627-0.832,3.627-2.483c0-0.764-0.281-1.348-0.848-1.752c-0.568-0.399-1.383-0.601-2.449-0.601h-4.969V27.315z
			 M212.706,36.528h5.979c2.375,0,3.562-0.849,3.562-2.551c0-1.657-1.242-2.483-3.725-2.483h-5.816V36.528z"/>
		<polygon fill="#FFFFFF" points="231.769,40.938 231.769,18.068 249.017,18.068 249.017,22.54 236.765,22.54 236.765,27.18 
			247.548,27.18 247.548,31.657 236.765,31.657 236.765,36.46 249.183,36.46 249.183,40.938 		"/>
		<polygon fill="#FFFFFF" points="254.104,40.938 254.104,18.068 259.136,18.068 259.136,36.365 270.538,36.365 270.538,40.938 		
			"/>
	</g>
</g>
<g id="hide_elemnts" display="none">
</g>
<g id="guidedline">
</g>
</svg>
